<?xml version="1.0" standalone="no"?><!DOCTYPE svg PUBLIC "-//W3C//DTD SVG 1.1//EN" "http://www.w3.org/Graphics/SVG/1.1/DTD/svg11.dtd"><svg class="icon" width="200px" height="200.00px" viewBox="0 0 1024 1024" version="1.1" xmlns="http://www.w3.org/2000/svg"><path fill="#ffffff" d="M339.968 0c19.380148 0 35.233185 14.639407 35.233185 32.502519v227.555555c-5.30963 17.901037 15.853037 37.394963 35.195259 32.502519 31.706074 4.892444 52.830815-14.601481 52.830815-32.502519V16.308148c0-9.784889 8.798815-16.270222 17.635556-16.270222h17.597629c10.543407 0 19.342222 6.485333 21.124741 16.270222 0 0 49.303704 203.169185 49.303704 260.058074C568.888889 412.86163 457.955556 455.111111 322.37037 455.111111S75.851852 412.86163 75.851852 276.328296C75.851852 219.439407 125.155556 16.270222 125.155556 16.270222 126.900148 6.447407 137.481481 0 146.280296 0h17.59763c10.581333 0 17.635556 8.116148 17.635555 16.270222v243.787852c0 17.901037 21.124741 37.394963 52.830815 32.502519 19.342222 4.892444 40.466963-14.601481 35.19526-32.502519v-227.555555c0-17.863111 15.853037-32.502519 35.233185-32.502519h35.195259zM255.127704 455.111111h96.559407l27.344593 482.683259C382.293333 986.074074 348.463407 1024 303.407407 1024s-78.885926-37.925926-75.624296-86.20563L255.127704 455.111111zM720.592593 115.749926v803.384889c0 36.788148 29.771852 66.939259 70.011259 66.939259 35.00563 0 66.522074-30.113185 70.011259-66.939259v-251.06963C909.653333 663.058963 948.148148 616.182519 948.148148 567.637333V475.591111c0-60.264296-7.016296-157.316741-15.739259-215.912296l-1.782519-10.050371c-8.722963-65.232593-52.489481-150.603852-105.016889-200.817777l-17.483851-16.76326C757.342815-19.835259 720.592593-4.740741 720.592593 48.810667V115.674074z" /></svg>