<?xml version="1.0" standalone="no"?><!DOCTYPE svg PUBLIC "-//W3C//DTD SVG 1.1//EN" "http://www.w3.org/Graphics/SVG/1.1/DTD/svg11.dtd"><svg class="icon" width="200px" height="200.00px" viewBox="0 0 1024 1024" version="1.1" xmlns="http://www.w3.org/2000/svg"><path fill="#ffffff" d="M972.8 934.4 198.4 934.4l128-38.4c19.2 0 32-6.4 51.2-19.2l563.2-563.2c32-32 32-76.8 0-108.8l-134.4-134.4c-32-32-76.8-32-108.8 0L134.4 633.6c-12.8 12.8-19.2 32-19.2 51.2l-76.8 249.6c-6.4 12.8 0 32 12.8 38.4 6.4 6.4 12.8 12.8 25.6 12.8 0 0 0 0 0 0l902.4 0c12.8 0 19.2-6.4 19.2-19.2C992 947.2 985.6 934.4 972.8 934.4zM748.8 128 883.2 256l-544 544-134.4-134.4L748.8 128zM179.2 710.4C179.2 710.4 179.2 710.4 179.2 710.4l121.6 115.2c0 0-6.4 0-6.4 0L128 876.8 179.2 710.4z" /></svg>