<?xml version="1.0" standalone="no"?><!DOCTYPE svg PUBLIC "-//W3C//DTD SVG 1.1//EN" "http://www.w3.org/Graphics/SVG/1.1/DTD/svg11.dtd"><svg t="1510747378110" class="icon" style="" viewBox="0 0 1024 1024" version="1.1" xmlns="http://www.w3.org/2000/svg" p-id="1994" xmlns:xlink="http://www.w3.org/1999/xlink" width="200" height="200"><defs><style type="text/css"></style></defs><path d="M 0.85 512.426 c 0 278.507 222.592 505.024 499.563 511.424 c -241.685 -5.91 -435.605 -189.675 -435.606 -415.51 c 0 -229.547 200.427 -415.659 447.616 -415.659 c 52.971 0 95.936 -42.944 95.936 -95.915 c 0 -52.95 -42.965 -95.915 -95.936 -95.915 c -282.539 -0.003 -511.573 229.035 -511.573 511.574 Z M 1024 512.427 c 0 -278.507 -222.592 -505.024 -499.563 -511.403 c 241.664 5.888 435.627 189.653 435.627 415.488 c 0 229.547 -200.448 415.659 -447.637 415.659 c -52.95 0 -95.915 42.965 -95.915 95.936 c 0 52.928 42.944 95.894 95.915 95.893 c 282.539 0 511.573 -229.035 511.573 -511.573 Z" p-id="1995" fill="#707070"></path></svg>