<svg width="1440" height="1000" viewBox="0 0 1440 1000" version="1.1" xmlns="http://www.w3.org/2000/svg" xmlns:xlink="http://www.w3.org/1999/xlink"><defs><linearGradient x1="34.659%" y1="-1.565%" x2="61.138%" y2="100%" id="linearGradient-1"><stop stop-color="#0E0729" offset="0%"/><stop stop-color="#241B3A" offset="53.052%"/><stop stop-color="#302743" offset="100%"/></linearGradient><rect id="path-2" x="0" y="0" width="1440" height="1000"/><linearGradient x1="49.363%" y1="27.671%" x2="49.363%" y2="8.166%" id="linearGradient-4"><stop stop-color="#271449" offset="0%"/><stop stop-color="#2B1847" stop-opacity=".519" offset="100%"/></linearGradient><linearGradient x1="50%" y1="29.991%" x2="50%" y2="4.748%" id="linearGradient-5"><stop stop-color="#3A195D" offset="0%"/><stop stop-color="#301555" stop-opacity=".645" offset="100%"/></linearGradient><linearGradient x1="50%" y1="43.139%" x2="50%" y2="16.015%" id="linearGradient-6"><stop stop-color="#481479" offset="0%"/><stop stop-color="#3D136E" offset="100%"/></linearGradient><linearGradient x1="40.452%" y1="68.823%" x2="40.452%" y2="22.747%" id="linearGradient-7"><stop stop-color="#511098" offset="0%"/><stop stop-color="#6513AA" stop-opacity=".654" offset="100%"/></linearGradient><radialGradient cx="31.019%" cy="27.933%" fx="31.019%" fy="27.933%" r="45.963%" gradientTransform="translate(0.310185,0.279334),scale(0.311135,1.000000),rotate(21.164476),translate(-0.310185,-0.279334)" id="radialGradient-8"><stop stop-color="#6513AA" stop-opacity=".15" offset="0%"/><stop stop-color="#48167D" offset="100%"/></radialGradient><linearGradient x1="65.787%" y1="86.745%" x2="65.787%" y2="9.777%" id="linearGradient-9"><stop stop-color="#B21CD7" stop-opacity=".7" offset="0%"/><stop stop-color="#A619D2" stop-opacity=".873" offset="42.628%"/><stop stop-color="#8410C3" stop-opacity=".764" offset="100%"/></linearGradient><linearGradient x1="71.931%" y1="52.317%" x2="100.811%" y2="100%" id="linearGradient-10"><stop stop-color="#311655" stop-opacity="0" offset="0%"/><stop stop-color="#A61DCD" stop-opacity=".846" offset="66.938%"/><stop stop-color="#B11ED8" stop-opacity=".769" offset="81.927%"/><stop stop-color="#9922B6" offset="100%"/></linearGradient></defs><g id="Symbols" stroke="none" stroke-width="1" fill="none" fill-rule="evenodd"><g id="background"><g id="Block"><mask id="mask-3" fill="#fff"><use xlink:href="#path-2"/></mask><use id="Background-Gradient" fill="url(#linearGradient-1)" xlink:href="#path-2"/><g id="Group-2" mask="url(#mask-3)"><g transform="translate(792.255267, 821.174036) rotate(-19.000000) translate(-792.255267, -821.174036) translate(-15.244733, 441.174036)"><path d="M0.187888845,291.150186 L100.352837,0.250052541 C175.458118,8.17225607 274.274074,21.7773259 396.995536,45.5351562 C722.887158,108.625 979.076278,71.8019687 1283.41773,54.7109375 C1417.36653,47.1887183 1530.80271,36.5173023 1614.37553,26.2459134 L1361.73464,759.968328 L0.187888845,291.150186 Z" id="Rectangle-7-Copy-8" fill="url(#linearGradient-4)"/><path d="M0.187888845,291.150186 L40.1697375,175.034466 C161.020686,188.831226 357.816588,202.780518 526.522752,174.174392 C807.117299,126.596267 1050.94033,105.729079 1351.09943,159.357986 C1432.5926,173.918228 1502.0189,182.493104 1559.03901,186.954814 L1361.73464,759.968328 L0.187888845,291.150186 Z" id="Rectangle-7-Copy-4" fill="url(#linearGradient-5)"/><path d="M0.187888845,291.150186 L26.9052793,215.268779 C103.919627,230.106016 230.028991,249.254798 421.451232,264.722656 C786.673041,294.234375 1007.12115,316.628906 1342.64928,270.117188 C1419.96331,259.399729 1485.42737,250.723995 1539.49485,243.715186 L1361.73464,759.968328 L0.187888845,291.150186 Z" id="Rectangle-7-Copy-7" fill="url(#linearGradient-6)"/><path d="M159.169872,759.968328 L14.8838543,343.024194 C79.0458487,355.568694 153.442536,370.055548 236.933822,386.21875 C562.825444,449.308594 792.226403,349.813687 1096.56786,332.722656 C1278.54645,322.503208 1420.93818,306.910412 1506.02066,296.023981 L159.169872,759.968328 Z" id="Rectangle-7-Copy-6" fill="url(#linearGradient-7)" transform="translate(760.452255, 527.996154) scale(-1, 1) translate(-760.452255, -527.996154)"/><path d="M159.169872,759.968328 L14.8838543,343.024194 C79.0458487,355.568694 153.442536,370.055548 236.933822,386.21875 C562.825444,449.308594 792.226403,349.813687 1096.56786,332.722656 C1278.54645,322.503208 1420.93818,306.910412 1506.02066,296.023981 L159.169872,759.968328 Z" id="Rectangle-7-Copy-9" fill="url(#radialGradient-8)" transform="translate(760.452255, 527.996154) scale(-1, 1) translate(-760.452255, -527.996154)"/><path d="M396.995536,425.535156 C722.887158,488.625 977.176123,459.813687 1281.51758,442.722656 C1352.35725,438.744483 1417.19812,433.952061 1474.9948,428.939978 L1361.08913,759.746061 C1361.08913,759.746061 393.843078,424.924867 396.995536,425.535156 Z" id="Rectangle-7-Copy" fill="url(#linearGradient-9)"/></g></g></g><rect id="Rectangle-3" fill="url(#linearGradient-10)" x="0" y="71" width="1440" height="929"/></g></g></svg>