<?xml version="1.0" standalone="no"?><!DOCTYPE svg PUBLIC "-//W3C//DTD SVG 1.1//EN" "http://www.w3.org/Graphics/SVG/1.1/DTD/svg11.dtd"><svg t="1510747434509" class="icon" style="" viewBox="0 0 1024 1024" version="1.1" xmlns="http://www.w3.org/2000/svg" p-id="2336" xmlns:xlink="http://www.w3.org/1999/xlink" width="200" height="200"><defs><style type="text/css"></style></defs><path d="M654.204769 880.855836c-13.82589 3.802606-28.114314-4.319375-31.917944-18.146289-3.800559-13.823843 4.322445-28.112268 18.146289-31.914874 156.403143-43.020816 266.807648-185.838545 266.807648-350.457814 0-200.721511-162.715919-363.437429-363.437429-363.437429-14.337543 0-25.960255-11.622712-25.960255-25.960255s11.621688-25.960255 25.960255-25.960255c229.396597 0 415.356916 185.963389 415.356916 415.356916C959.160249 668.475797 832.997851 831.674717 654.204769 880.855836zM449.02676 129.375579C291.707758 171.747619 180.365904 315.016627 180.365904 480.33686c0 200.721511 162.715919 363.437429 363.437429 363.437429 14.337543 0 25.960255 11.621688 25.960255 25.960255 0 14.337543-11.621688 25.960255-25.960255 25.960255-229.396597 0-415.356916-185.960319-415.356916-415.356916 0-188.93814 127.231753-352.656899 307.078841-401.095098 13.84431-3.727904 28.088732 4.469801 31.816636 18.315134C471.071845 111.401206 462.871069 125.645628 449.02676 129.375579z" p-id="2337"></path></svg>