<?xml version="1.0" standalone="no"?><!DOCTYPE svg PUBLIC "-//W3C//DTD SVG 1.1//EN" "http://www.w3.org/Graphics/SVG/1.1/DTD/svg11.dtd"><svg class="icon" width="200px" height="200.00px" viewBox="0 0 1024 1024" version="1.1" xmlns="http://www.w3.org/2000/svg"><path fill="#ffffff" d="M827.733333 746.666667H196.266667c-70.4 0-128-57.6-128-128V226.133333c0-70.4 57.6-128 128-128h633.6c70.4 0 128 57.6 128 128V618.666667c-2.133333 70.4-57.6 128-130.133334 128zM196.266667 162.133333c-36.266667 0-64 27.733333-64 64V618.666667c0 36.266667 27.733333 64 64 64h633.6c36.266667 0 64-27.733333 64-64V226.133333c0-36.266667-27.733333-64-64-64H196.266667zM608 925.866667h-189.866667c-17.066667 0-32-14.933333-32-32s14.933333-32 32-32h189.866667c17.066667 0 32 14.933333 32 32s-14.933333 32-32 32zM512 913.066667c-17.066667 0-32-14.933333-32-32v-164.266667c0-17.066667 14.933333-32 32-32s32 14.933333 32 32v164.266667c0 17.066667-14.933333 32-32 32zM695.466667 366.933333H328.533333c-17.066667 0-32-14.933333-32-32s14.933333-32 32-32h369.066667c17.066667 0 32 14.933333 32 32s-14.933333 32-34.133333 32zM689.066667 531.2H334.933333c-17.066667 0-32-14.933333-32-32s14.933333-32 32-32h356.266667c17.066667 0 32 14.933333 32 32s-14.933333 32-34.133333 32z" /></svg>