<?xml version="1.0" standalone="no"?><!DOCTYPE svg PUBLIC "-//W3C//DTD SVG 1.1//EN" "http://www.w3.org/Graphics/SVG/1.1/DTD/svg11.dtd"><svg class="icon" width="200px" height="200.00px" viewBox="0 0 1024 1024" version="1.1" xmlns="http://www.w3.org/2000/svg"><path fill="#ffffff" d="M422.3232 1012.28032c-250.74176-23.31136-407.87968-221.5424-407.87968-509.16864 0-23.3216 16.7168-46.6432 40.12032-46.6432s40.1152 23.3216 40.1152 46.6432c0 186.56256 86.92736 392.56064 334.32576 415.88224 177.19296 0 320.95744-171.008 320.95744-380.90752V448.69632c0-27.20768-3.34336-54.41536-6.69184-77.73696H74.624c-23.40352 0-40.1152-19.4304-40.1152-46.6432 0-27.20256 16.71168-46.6432 40.1152-46.6432h698.74688c16.71168 0 33.42848 11.66336 36.77184 31.09888 13.37344 46.63808 20.06528 93.28128 20.06528 139.91936v93.28128c-0.00512 260.41344-183.8848 470.30784-407.8848 470.30784z"  /><path fill="#ffffff" d="M766.67392 817.94048c-23.3984 0-40.12032-19.4304-40.12032-46.6432 0-27.20256 16.72192-46.63296 40.12032-46.63296 73.5488 0 173.8496-93.2864 173.8496-186.56768 0-54.41024-13.3632-97.16736-40.1152-116.59776-16.7168-11.65824-36.77696-15.54432-56.84224-7.77216-20.05504 7.77216-43.45344-3.8912-53.48864-27.20768-3.34336-19.43552 6.69184-46.63808 26.752-58.30656 43.45856-19.42528 93.60896-15.54944 130.39104 15.54944 46.7968 38.86592 73.5488 108.8256 73.5488 194.33472 0 151.5776-140.42624 279.84384-254.09536 279.84384zM308.33664 89.47712c13.37344 0 23.40352 11.66336 23.40352 27.20768v101.05856c0 15.54432-10.03008 27.20256-23.40352 27.20256-13.37344 0-23.40352-11.65824-23.40352-27.20256V116.6848c0-15.54944 10.02496-27.20768 23.40352-27.20768zM425.344 11.74016c13.37344 0 23.40352 11.65824 23.40352 27.20768v178.79552c0 15.54432-10.03008 27.20256-23.40352 27.20256-13.36832 0-23.3984-11.65824-23.3984-27.20256V38.94784c0-15.54944 10.03008-27.20768 23.3984-27.20768zM542.3616 50.60608c13.37344 0 23.40352 11.66336 23.40352 27.20768v139.9296c0 15.54432-10.03008 27.20256-23.40352 27.20256-13.37344 0-23.3984-11.65824-23.3984-27.20256v-139.9296c-0.00512-15.54432 10.01984-27.20768 23.3984-27.20768zM234.4192 722.29376h369.44384v211.46112H234.4192z"  /><path fill="#ffffff" d="M126.44352 722.29376h589.66528v130.5088H126.44352z"  /></svg>