<?xml version="1.0" standalone="no"?><!DOCTYPE svg PUBLIC "-//W3C//DTD SVG 1.1//EN" "http://www.w3.org/Graphics/SVG/1.1/DTD/svg11.dtd"><svg t="1510747506073" class="icon" style="" viewBox="0 0 1024 1024" version="1.1" xmlns="http://www.w3.org/2000/svg" p-id="4344" xmlns:xlink="http://www.w3.org/1999/xlink" width="200" height="200"><defs><style type="text/css"></style></defs><path d="M903.3 570.6l-177.4 47.5-184.7-106.6 184.7-106.6 177.4 47.5c1.3 0.3 2.5 0.5 3.8 0.5 6.4 0 12.3-4.3 14-10.7 2.1-7.7-2.5-15.7-10.3-17.8l-149.4-40L893.6 308c6.9-4 9.3-12.9 5.3-19.8-4-6.9-12.9-9.3-19.8-5.3L746 359.7l40-149.4c2.1-7.7-2.5-15.7-10.3-17.8-7.7-2.1-15.7 2.5-17.8 10.3l-47.5 177.4-183.7 106.2V273.1l129.9-129.9c5.7-5.7 5.7-14.8 0-20.5-5.7-5.7-14.8-5.7-20.5 0L526.7 232.1V79.4c0-8-6.5-14.5-14.5-14.5s-14.5 6.5-14.5 14.5V233L388.3 123.7c-5.7-5.7-14.8-5.7-20.5 0-5.7 5.7-5.7 14.8 0 20.5l129.9 129.9v212.3L313 379.7l-47.5-177.4c-2.1-7.7-10-12.3-17.8-10.3-7.7 2.1-12.3 10-10.3 17.8l40 149.4-132.2-76.3c-6.9-4-15.8-1.6-19.8 5.3s-1.6 15.8 5.3 19.8l133.1 76.8-149.4 40c-7.7 2.1-12.3 10-10.3 17.8 1.7 6.5 7.6 10.7 14 10.7 1.2 0 2.5-0.2 3.8-0.5l177.4-47.5 183.9 106.2-183.9 106.1-177.4-47.5c-7.7-2.1-15.7 2.5-17.8 10.3-2.1 7.7 2.5 15.7 10.3 17.8l149.4 40-133 76.8c-6.9 4-9.3 12.9-5.3 19.8 2.7 4.7 7.6 7.3 12.6 7.3 2.5 0 5-0.6 7.2-1.9l132.2-76.3-40 149.4c-2.1 7.7 2.5 15.7 10.3 17.8 1.3 0.3 2.5 0.5 3.8 0.5 6.4 0 12.3-4.3 14-10.7L313 643.2l184.7-106.6v212.3L367.8 878.8c-5.7 5.7-5.7 14.8 0 20.5 5.7 5.7 14.8 5.7 20.5 0l109.4-109.4v153.6c0 8 6.5 14.5 14.5 14.5s14.5-6.5 14.5-14.5V790.9l109.4 109.4c2.8 2.8 6.5 4.2 10.3 4.2 3.7 0 7.4-1.4 10.3-4.2 5.7-5.7 5.7-14.8 0-20.5l-130-129.9V536.6l183.9 106.2 47.5 177.4c1.7 6.5 7.6 10.7 14 10.7 1.2 0 2.5-0.2 3.8-0.5 7.7-2.1 12.3-10 10.3-17.8l-40-149.4L879.3 740c2.3 1.3 4.8 1.9 7.2 1.9 5 0 9.9-2.6 12.6-7.3 4-6.9 1.6-15.8-5.3-19.8l-132.2-76.3 149.4-40c7.7-2.1 12.3-10 10.3-17.8-2.3-7.6-10.2-12.2-18-10.1z" fill="#238FD1" p-id="4345"></path></svg>